<mxfile host="app.diagrams.net" modified="2023-01-08T08:26:06.208Z" agent="5.0 (Windows NT 10.0; Win64; x64) AppleWebKit/537.36 (KHTML, like Gecko) Chrome/108.0.0.0 Safari/537.36" version="20.8.3" etag="vdaxVtPT3tRn4Td5NzmD" type="github">
  <diagram id="puEukgfmVLQ8p7sVc1-D" name="第 1 页">
    <mxGraphModel dx="1434" dy="796" grid="1" gridSize="10" guides="1" tooltips="1" connect="1" arrows="1" fold="1" page="1" pageScale="1" pageWidth="827" pageHeight="1169" math="0" shadow="0">
      <root>
        <mxCell id="0" />
        <mxCell id="1" parent="0" />
        <mxCell id="6lKq3_9PJepYyruH59c8-1" value="client" style="rounded=0;whiteSpace=wrap;html=1;" vertex="1" parent="1">
          <mxGeometry x="150" y="200" width="120" height="60" as="geometry" />
        </mxCell>
        <mxCell id="6lKq3_9PJepYyruH59c8-3" value="" style="endArrow=none;html=1;rounded=0;entryX=0.5;entryY=1;entryDx=0;entryDy=0;" edge="1" parent="1" target="6lKq3_9PJepYyruH59c8-1">
          <mxGeometry width="50" height="50" relative="1" as="geometry">
            <mxPoint x="210" y="560" as="sourcePoint" />
            <mxPoint x="440" y="380" as="targetPoint" />
            <Array as="points">
              <mxPoint x="210" y="310" />
            </Array>
          </mxGeometry>
        </mxCell>
        <mxCell id="6lKq3_9PJepYyruH59c8-4" value="short url server" style="rounded=0;whiteSpace=wrap;html=1;" vertex="1" parent="1">
          <mxGeometry x="490" y="310" width="120" height="60" as="geometry" />
        </mxCell>
        <mxCell id="6lKq3_9PJepYyruH59c8-6" value="" style="endArrow=classic;html=1;rounded=0;entryX=0;entryY=0.5;entryDx=0;entryDy=0;" edge="1" parent="1" target="6lKq3_9PJepYyruH59c8-4">
          <mxGeometry width="50" height="50" relative="1" as="geometry">
            <mxPoint x="210" y="300" as="sourcePoint" />
            <mxPoint x="440" y="380" as="targetPoint" />
          </mxGeometry>
        </mxCell>
        <mxCell id="6lKq3_9PJepYyruH59c8-7" value="&lt;span style=&quot;color: rgb(48, 48, 48); font-family: &amp;quot;Source Code Pro&amp;quot;, Courier; font-size: 16px; text-align: start; background-color: rgb(241, 243, 245);&quot;&gt;http://t.cn/A6ULvJho&lt;/span&gt;" style="rounded=0;whiteSpace=wrap;html=1;" vertex="1" parent="1">
          <mxGeometry x="260" y="300" width="190" height="10" as="geometry" />
        </mxCell>
        <mxCell id="6lKq3_9PJepYyruH59c8-8" value="" style="endArrow=classic;html=1;rounded=0;" edge="1" parent="1">
          <mxGeometry width="50" height="50" relative="1" as="geometry">
            <mxPoint x="480" y="350" as="sourcePoint" />
            <mxPoint x="210" y="430" as="targetPoint" />
          </mxGeometry>
        </mxCell>
        <mxCell id="6lKq3_9PJepYyruH59c8-9" value="&lt;span style=&quot;color: rgb(48, 48, 48); font-family: &amp;quot;Source Code Pro&amp;quot;, Courier; font-size: 16px; text-align: start; background-color: rgb(241, 243, 245);&quot;&gt;302&lt;br&gt;&lt;/span&gt;" style="rounded=0;whiteSpace=wrap;html=1;rotation=-15;" vertex="1" parent="1">
          <mxGeometry x="250" y="370" width="180" height="10" as="geometry" />
        </mxCell>
        <mxCell id="6lKq3_9PJepYyruH59c8-10" value="&lt;span style=&quot;color: rgb(102, 102, 102); font-family: Menlo, Monaco, &amp;quot;Source Code Pro&amp;quot;, &amp;quot;Courier New&amp;quot;, monospace; font-size: 13px; text-align: start; background-color: rgb(241, 243, 245);&quot;&gt;Location: https://www.howardliu.cn/how-to-use-branc&lt;/span&gt;" style="rounded=0;whiteSpace=wrap;html=1;rotation=-20;" vertex="1" parent="1">
          <mxGeometry x="249.99999999999997" y="400" width="190" height="50" as="geometry" />
        </mxCell>
        <mxCell id="6lKq3_9PJepYyruH59c8-13" value="" style="endArrow=classic;html=1;rounded=0;" edge="1" parent="1" target="6lKq3_9PJepYyruH59c8-14">
          <mxGeometry width="50" height="50" relative="1" as="geometry">
            <mxPoint x="210" y="440" as="sourcePoint" />
            <mxPoint x="490" y="620" as="targetPoint" />
          </mxGeometry>
        </mxCell>
        <mxCell id="6lKq3_9PJepYyruH59c8-14" value="long url server" style="rounded=0;whiteSpace=wrap;html=1;" vertex="1" parent="1">
          <mxGeometry x="490" y="570" width="120" height="60" as="geometry" />
        </mxCell>
      </root>
    </mxGraphModel>
  </diagram>
</mxfile>
